<svg width="603" height="476" viewBox="0 0 603 476" fill="none" xmlns="http://www.w3.org/2000/svg">
<ellipse rx="233.5" ry="210.591" transform="matrix(-1 0 0 1 286.5 238.477)" fill="#FFE5D2"/>
<path fill-rule="evenodd" clip-rule="evenodd" d="M480.408 330.497C480.508 330.44 481.135 331.238 482.061 332.809C482.991 334.375 484.148 336.753 485.224 339.822C487.428 345.939 488.812 354.968 487.992 364.815C487.178 374.661 484.819 383.304 482.999 389.456C481.137 395.61 479.767 399.346 479.531 399.283C479.27 399.214 480.195 395.348 481.723 389.133C483.211 382.92 485.335 374.323 486.131 364.679C486.931 355.038 485.793 346.262 483.964 340.196C482.187 334.099 480.115 330.643 480.408 330.497" fill="white"/>
<path fill-rule="evenodd" clip-rule="evenodd" d="M486.696 281.22C486.813 281.171 487.57 282.508 488.835 284.976C490.098 287.443 491.873 291.039 493.973 295.525C498.138 304.498 503.744 317.059 507.81 331.641C509.809 338.936 511.172 346.027 511.862 352.54C512.557 359.051 512.628 364.967 512.28 369.904C511.943 374.844 511.297 378.808 510.675 381.503C510.059 384.203 509.572 385.658 509.462 385.634C509.117 385.57 510.639 379.625 510.963 369.845C511.365 360.084 510.036 346.524 506.007 332.105C501.987 317.681 496.61 305.114 492.761 296.03C490.823 291.484 489.256 287.805 488.171 285.261C487.111 282.708 486.578 281.271 486.696 281.22" fill="white"/>
<path fill-rule="evenodd" clip-rule="evenodd" d="M253.991 339.056C254.207 339.28 252.091 341.227 249.345 344.842C248.663 345.751 247.923 346.744 247.23 347.878C246.473 348.971 245.814 350.225 245.08 351.52C243.717 354.159 242.423 357.158 241.424 360.423C240.47 363.701 239.913 366.904 239.613 369.839C239.522 371.311 239.389 372.712 239.427 374.025C239.389 375.341 239.467 376.564 239.543 377.683C239.876 382.152 240.596 384.887 240.289 384.967C240.103 385.029 238.919 382.387 238.232 377.813C238.067 376.67 237.91 375.415 237.88 374.056C237.774 372.699 237.85 371.247 237.897 369.718C238.112 366.67 238.639 363.327 239.632 359.926C240.667 356.534 242.061 353.434 243.562 350.743C244.363 349.422 245.098 348.154 245.937 347.06C246.71 345.923 247.537 344.941 248.306 344.058C251.409 340.537 253.869 338.909 253.991 339.056" fill="white"/>
<path fill-rule="evenodd" clip-rule="evenodd" d="M258.957 354.832C259.114 355.073 257.935 355.943 256.395 357.608C255.615 358.429 254.793 359.494 253.985 360.729C253.211 361.984 252.47 363.424 251.887 365.012C251.33 366.608 250.995 368.183 250.803 369.634C250.65 371.085 250.616 372.412 250.705 373.524C250.855 375.749 251.228 377.137 250.95 377.233C250.75 377.315 249.911 376.045 249.398 373.693C249.13 372.52 249.02 371.084 249.089 369.493C249.198 367.908 249.513 366.169 250.123 364.425C250.757 362.689 251.621 361.134 252.548 359.819C253.509 358.525 254.514 357.461 255.472 356.697C257.379 355.148 258.851 354.648 258.957 354.832" fill="white"/>
<path fill-rule="evenodd" clip-rule="evenodd" d="M190.015 207.809C190.111 207.728 190.946 208.521 192.379 210.033C193.107 210.781 193.967 211.723 194.877 212.885C195.796 214.037 196.902 215.316 197.939 216.853C198.474 217.612 199.037 218.406 199.621 219.234C200.199 220.067 200.723 220.979 201.307 221.9C202.502 223.73 203.574 225.795 204.739 227.949C206.939 232.319 209.043 237.278 210.719 242.655C212.341 248.047 213.37 253.314 213.985 258.135C214.22 260.555 214.484 262.85 214.511 265.011C214.539 266.091 214.613 267.131 214.596 268.135C214.573 269.136 214.549 270.097 214.527 271.014C214.522 272.851 214.314 274.502 214.192 275.952C214.082 277.404 213.892 278.645 213.701 279.654C213.351 281.676 213.097 282.779 212.969 282.762C212.641 282.72 213.26 278.24 213.208 271.001C213.191 270.095 213.174 269.149 213.157 268.161C213.135 267.175 213.026 266.15 212.965 265.09C212.873 262.966 212.555 260.713 212.28 258.34C211.58 253.614 210.521 248.458 208.929 243.166C207.283 237.889 205.269 233.004 203.192 228.67C202.088 226.534 201.085 224.477 199.967 222.645C199.42 221.722 198.933 220.806 198.397 219.966C197.855 219.129 197.336 218.325 196.841 217.557C192.806 211.452 189.761 208.018 190.015 207.809" fill="white"/>
<path fill-rule="evenodd" clip-rule="evenodd" d="M211.144 216.244C211.303 216.108 213.446 218.042 216.172 221.769C217.544 223.625 218.989 225.964 220.396 228.66C221.762 231.375 223.066 234.459 224.106 237.8C225.115 241.15 225.756 244.423 226.139 247.419C226.476 250.421 226.581 253.141 226.473 255.418C226.284 259.976 225.574 262.723 225.365 262.692C225.065 262.657 225.305 259.875 225.153 255.417C225.092 253.19 224.854 250.544 224.435 247.635C223.969 244.731 223.295 241.566 222.317 238.311C221.306 235.065 220.087 232.054 218.843 229.373C217.557 226.709 216.267 224.365 215.064 222.461C212.68 218.64 210.913 216.431 211.144 216.244" fill="white"/>
<path fill-rule="evenodd" clip-rule="evenodd" d="M137.156 363.559L135.532 360.359L90.3121 393.694L110.04 424.528L155.053 387.911L137.156 363.559Z" fill="#FF7B5B"/>
<path fill-rule="evenodd" clip-rule="evenodd" d="M92.207 394.407L109.538 423.323L110.646 422.846L95.2125 395.809L92.207 394.407Z" fill="#D7D4D4"/>
<path fill-rule="evenodd" clip-rule="evenodd" d="M136.263 362.926L92.207 394.406C92.207 394.406 92.3917 395.082 93.485 395.499C94.5796 395.916 95.2125 395.81 95.2125 395.81L141.529 365.225C141.529 365.225 138.859 364.627 137.891 363.929C136.921 363.23 136.263 362.926 136.263 362.926" fill="#F5F3F3"/>
<path fill-rule="evenodd" clip-rule="evenodd" d="M142.662 363.992L94.3854 395.103L110.065 423.772L112.591 427.743L160.869 393.269C160.869 393.269 155.784 385.947 152.731 381.526C149.678 377.105 143.685 366.679 143.359 366.011C143.031 365.343 142.662 363.992 142.662 363.992" fill="#FF7B5B"/>
<path fill-rule="evenodd" clip-rule="evenodd" d="M540.786 149.208L542.15 146.52L580.122 174.513L563.556 200.406L525.757 169.657L540.786 149.208Z" fill="#775298"/>
<path fill-rule="evenodd" clip-rule="evenodd" d="M578.531 175.111L563.979 199.392L563.047 198.993L576.008 176.289L578.531 175.111Z" fill="#D7D4D4"/>
<path fill-rule="evenodd" clip-rule="evenodd" d="M541.537 148.675L578.532 175.11C578.532 175.11 578.375 175.678 577.459 176.028C576.539 176.378 576.007 176.288 576.007 176.288L537.113 150.606C537.113 150.606 539.356 150.104 540.169 149.517C540.983 148.93 541.537 148.675 541.537 148.675" fill="#F5F3F3"/>
<path fill-rule="evenodd" clip-rule="evenodd" d="M536.163 149.571L576.702 175.695L563.537 199.771L561.415 203.104L520.873 174.155C520.873 174.155 525.144 168.006 527.707 164.294C530.273 160.582 535.304 151.826 535.577 151.265C535.852 150.706 536.163 149.571 536.163 149.571" fill="#775298"/>
<path fill-rule="evenodd" clip-rule="evenodd" d="M83.1693 98.8257C83.1693 98.8257 80.3023 100.74 81.7352 103.932C83.1693 107.124 89.4546 116.592 97.9455 116.273C98.2932 116.261 87.2491 98.8257 87.2491 98.8257H83.1693Z" fill="#FF7B5B"/>
<path fill-rule="evenodd" clip-rule="evenodd" d="M70.1804 273.378C70.1804 273.378 59.5627 264.226 56.1633 265.866C52.0102 267.869 28.2393 290.34 29.1682 300.926C29.5499 305.262 34.7813 301.547 44.1033 292.217C53.4281 282.889 65.169 286.887 65.169 286.887L70.1804 273.378Z" fill="#775298"/>
<path fill-rule="evenodd" clip-rule="evenodd" d="M95.9771 288.811L83.1592 281.392C83.1592 281.392 49.9345 311.444 55.1252 315.451C59.0623 318.49 61.3765 315.764 70.6999 306.435C80.022 297.108 91.8335 302.471 91.8335 302.471L95.9771 288.811Z" fill="#775298"/>
<path fill-rule="evenodd" clip-rule="evenodd" d="M174.276 189.941L176.68 222.872L123.322 209.461L174.276 189.941Z" fill="#F3A683"/>
<path fill-rule="evenodd" clip-rule="evenodd" d="M123.322 210.594C123.322 210.594 169.995 213.432 176.21 211.431C176.21 211.431 185.331 297.882 169.101 307.209C152.871 316.538 116.449 302.878 116.449 302.878L126.283 284.222L147.486 282.889V249.574L145.965 249.907L123.322 210.594Z" fill="#112129"/>
<path fill-rule="evenodd" clip-rule="evenodd" d="M64.8169 269.563C64.8169 269.563 53.0774 274.228 56.876 285.555C56.876 285.555 96.9497 315.872 116.449 308.875C127.374 304.956 139.109 275.052 147.319 249.503L176.21 211.431C176.21 211.431 162.584 212.089 158.039 212.072C149.351 212.04 123.323 210.594 123.323 210.594C123.323 210.594 109.727 279.225 104.882 280.891C100.038 282.555 64.8169 269.563 64.8169 269.563" fill="#22343D"/>
<path fill-rule="evenodd" clip-rule="evenodd" d="M134.198 124.515C134.198 124.515 162.17 99.1939 167.004 92.5297C171.837 85.8667 182.199 63.5454 194.972 54.2173L188.758 41.557C188.758 41.557 192.558 39.5587 194.972 44.8878C194.972 44.8878 203.95 27.5654 206.022 27.8969C208.096 28.2297 201.88 41.2242 201.88 41.2242C201.88 41.2242 210.515 29.2295 212.931 29.5636C215.345 29.8965 206.715 43.0468 206.715 43.0468C206.715 43.0468 216.382 32.2288 217.764 33.5614C219.145 34.894 210.167 43.0468 210.167 43.0468C210.167 43.0468 219.835 37.6915 220.872 39.4565C221.908 41.2242 211.203 45.8876 211.203 45.8876C211.203 45.8876 210.167 53.5503 203.607 56.8811C203.607 56.8811 190.617 90.7424 178.876 101.736L141.16 139.554L134.198 124.515Z" fill="#FFC6B2"/>
<path fill-rule="evenodd" clip-rule="evenodd" d="M100.809 137.637C100.809 137.637 74.3052 164.386 67.3544 168.987C60.4022 173.586 37.1718 183.375 27.3853 195.614L14.3216 189.499C14.3216 189.499 12.2152 193.144 17.7169 195.525C17.7169 195.525 -0.322842 204.025 0.0044616 206.028C0.329049 208.03 13.8544 202.155 13.8544 202.155C13.8544 202.155 1.3422 210.373 1.66543 212.707C1.98866 215.041 15.6974 206.835 15.6974 206.835C15.6974 206.835 4.39522 216.061 5.7642 217.406C7.13045 218.751 15.6662 210.167 15.6662 210.167C15.6662 210.167 10.0246 219.445 11.8472 220.46C13.667 221.476 18.601 211.192 18.601 211.192C18.601 211.192 26.5514 210.267 30.0675 203.967C30.0675 203.967 63.31 191.206 74.8158 179.982L116.184 151.701L100.809 137.637Z" fill="#FFC6B2"/>
<path fill-rule="evenodd" clip-rule="evenodd" d="M110.745 126.976L97.3401 139.637L100.739 153.909C100.739 153.909 113.946 184.498 115.942 191.96C119.045 203.564 114.026 221.258 114.026 221.258C114.026 221.258 136.414 219.464 156.786 218.798C177.156 218.131 183.82 211.8 183.82 211.8C183.82 211.8 166.158 155.045 153.964 139.179C141.768 123.317 137.332 118.351 137.332 118.351L119.377 122.137L110.745 126.976Z" fill="white"/>
<path fill-rule="evenodd" clip-rule="evenodd" d="M150.085 137.309L164.051 128.699C164.051 128.699 166.185 119.474 149.342 108.593L129.591 120.534L150.085 137.309Z" fill="white"/>
<path fill-rule="evenodd" clip-rule="evenodd" d="M100.165 138.636C92.5078 139.672 78.5152 158.395 76.9547 158.36C76.9547 158.36 86.8024 173.865 94.6033 174.368C94.6033 174.368 128.932 134.743 100.165 138.636" fill="white"/>
<path fill-rule="evenodd" clip-rule="evenodd" d="M127.194 126.453C127.194 126.453 116.064 118.43 116.45 115.231C116.548 114.426 118.09 113.118 118.491 111.957C120.649 105.711 110.245 89.616 103.852 86.2236C98.8229 83.5558 101.027 83.32 90.4434 89.388C79.8596 95.4561 85.8896 105.949 90.6158 111.376C95.084 116.506 100.201 118.704 104.805 119.075L111.351 133.103L127.194 126.453Z" fill="#FFC6B2"/>
<path fill-rule="evenodd" clip-rule="evenodd" d="M107.111 137.59C105.006 132.608 108.992 126.333 116.015 123.57C123.04 120.805 130.438 122.603 132.547 127.582C134.651 132.562 127.583 140.05 123.638 141.602C119.693 143.155 109.215 142.569 107.111 137.59" fill="#FFC6B2"/>
<path fill-rule="evenodd" clip-rule="evenodd" d="M90.6163 111.377C90.6163 111.377 87.0065 111.184 86.6058 113.505C86.2038 115.827 93.2225 115.827 95.8301 114.085L90.6163 111.377Z" fill="#FFC6B2"/>
<path fill-rule="evenodd" clip-rule="evenodd" d="M92.4214 113.505C91.7356 109.31 87.103 106.192 87.3339 102.105C89.5544 102.122 90.9804 99.4686 89.97 97.2004C89.5721 96.3094 88.8985 95.5468 88.4679 94.6676C88.0388 93.7897 87.9247 92.6392 88.5834 92.1426C88.8957 91.9081 89.3181 91.8674 89.7228 91.8281C93.0149 91.5019 98.6551 92.4545 101.685 91.3708C104.57 90.3396 107.661 88.3335 107.361 84.9241C107.098 81.9549 104.381 79.5478 101.885 77.7291C100.455 76.6861 96.3681 73.9593 94.8266 74.207C92.473 74.5844 91.9026 77.6138 91.7328 80.1493C90.0868 78.6372 87.6585 78.8796 86.2271 80.11C84.7956 81.3404 84.1179 83.2953 83.4946 85.1822C82.8698 87.0704 82.2084 89.0306 80.796 90.2846C79.48 91.4534 77.398 92.3378 77.671 94.3256C77.9956 96.6947 81.2034 97.5372 82.6865 99.5577C82.3211 99.0624 82.0115 102.226 82.222 102.761C82.8549 104.377 84.4344 105.446 85.5765 106.682C88.0089 109.316 89.1986 111.968 92.4214 113.505" fill="#FF7B5B"/>
<path fill-rule="evenodd" clip-rule="evenodd" d="M112.587 103.914L104.363 108.018C104.363 108.018 114.242 114.936 112.587 103.914" fill="white"/>
<path fill-rule="evenodd" clip-rule="evenodd" d="M101.272 105.541C101.722 106.364 101.056 107.554 99.7865 108.198C98.5167 108.843 97.1232 108.699 96.6737 107.876C96.2255 107.053 96.8896 105.865 98.1595 105.219C99.4307 104.574 100.823 104.718 101.272 105.541" fill="#FFB2A0"/>
<path fill-rule="evenodd" clip-rule="evenodd" d="M113.282 97.6261C113.731 98.449 113.066 99.6388 111.796 100.283C110.526 100.928 109.133 100.784 108.683 99.9611C108.235 99.1382 108.899 97.9484 110.169 97.3038C111.44 96.6591 112.832 96.8032 113.282 97.6261" fill="#FFB2A0"/>
<path fill-rule="evenodd" clip-rule="evenodd" d="M106.846 103.623C106.808 103.577 106.961 103.382 107.317 103.134C107.657 102.881 108.248 102.609 108.686 102.153C109.121 101.711 109.277 100.79 108.611 100.66C107.92 100.434 107.135 101.199 106.235 101.926C106.012 102.104 105.792 102.281 105.573 102.456C105.37 102.636 104.941 102.901 104.495 102.847C103.646 102.715 103.285 102.169 102.959 101.803C102.307 100.996 101.905 100.151 101.682 99.4195C101.241 97.9415 101.439 96.9875 101.545 96.9954C101.693 96.9889 101.742 97.9061 102.303 99.2059C102.586 99.8519 103.008 100.586 103.623 101.279C103.923 101.63 104.301 101.958 104.57 101.968C104.682 101.973 104.771 101.937 104.983 101.765C105.199 101.591 105.416 101.414 105.636 101.236C106.089 100.882 106.482 100.524 107.001 100.191C107.505 99.8637 108.223 99.6567 108.867 99.8676C109.554 100.042 109.957 100.815 109.838 101.352C109.76 101.9 109.478 102.304 109.157 102.598C108.48 103.145 107.874 103.277 107.492 103.442C107.101 103.585 106.887 103.674 106.846 103.623" fill="#FF7B5B"/>
<path fill-rule="evenodd" clip-rule="evenodd" d="M104.805 119.075C104.805 119.075 110.052 119.104 112.898 117.412C112.898 117.412 110.49 120.266 105.672 121.005L104.805 119.075Z" fill="#FFA192"/>
<path fill-rule="evenodd" clip-rule="evenodd" d="M107.081 96.3753C107.033 96.6255 106.3 96.7028 105.524 97.033C104.738 97.3397 104.17 97.7943 103.952 97.6528C103.728 97.5388 104.098 96.6347 105.16 96.2036C106.221 95.7699 107.15 96.1394 107.081 96.3753" fill="#22343D"/>
<path fill-rule="evenodd" clip-rule="evenodd" d="M96.7994 102.882C96.6011 102.741 96.9121 101.926 97.6672 101.109C98.4318 100.276 99.4083 99.9981 99.5115 100.231C99.6201 100.458 99.0253 100.986 98.3557 101.719C97.6753 102.448 97.0139 103.037 96.7994 102.882" fill="#22343D"/>
<path fill-rule="evenodd" clip-rule="evenodd" d="M92.8138 101.624C92.3887 101.32 92.0574 100.019 93.6844 98.2659C95.3263 96.4734 97.1611 96.7892 97.3811 97.2871C97.6175 97.7759 97.0063 98.4716 95.5654 100.048C94.1027 101.619 93.2742 101.957 92.8138 101.624" fill="#FF7B5B"/>
<path fill-rule="evenodd" clip-rule="evenodd" d="M101.451 94.7182C101.216 94.2936 101.475 93.058 103.591 92.1971C105.737 91.3074 107.167 92.2888 107.146 92.7985C107.142 93.3056 106.334 93.6607 104.449 94.4443C102.551 95.2135 101.705 95.1807 101.451 94.7182" fill="#FF7B5B"/>
<path fill-rule="evenodd" clip-rule="evenodd" d="M552.766 107.009C552.905 107.142 550.626 109.616 545.897 112.31C541.226 115.001 533.878 117.669 525.425 117.729C516.972 117.789 509.582 115.226 504.871 112.602C500.103 109.976 497.786 107.534 497.922 107.399C498.119 107.159 500.71 109.219 505.485 111.474C510.214 113.738 517.341 115.985 525.41 115.929C533.481 115.87 540.572 113.522 545.267 111.191C550.005 108.867 552.567 106.771 552.766 107.009" fill="#775298"/>
<path fill-rule="evenodd" clip-rule="evenodd" d="M501.198 103.272C501.069 103.546 498.546 102.536 494.295 101.621C492.176 101.139 489.605 100.767 486.742 100.424C483.868 100.117 480.692 99.8735 477.337 99.6429C473.981 99.4162 470.77 99.1554 467.852 98.8069C464.935 98.4334 462.314 97.9893 460.155 97.4258C455.819 96.3343 453.364 95.0423 453.45 94.8602C453.562 94.585 456.144 95.4354 460.437 96.181C462.579 96.5754 465.163 96.8807 468.041 97.1572C470.926 97.4114 474.112 97.6197 477.472 97.8477C480.834 98.0784 484.052 98.3758 486.966 98.7794C489.879 99.2209 492.492 99.7346 494.63 100.39C498.923 101.654 501.294 103.101 501.198 103.272" fill="#775298"/>
<mask id="mask0_0_574" style="mask-type:alpha" maskUnits="userSpaceOnUse" x="433" y="33" width="170" height="81">
<path fill-rule="evenodd" clip-rule="evenodd" d="M433.032 33.8538H602.356V113.893H433.032V33.8538Z" fill="white"/>
</mask>
<g mask="url(#mask0_0_574)">
<path fill-rule="evenodd" clip-rule="evenodd" d="M450.063 50.0657C458.122 48.416 466.472 49.8364 474.598 51.1428C482.724 52.4492 491.161 53.6271 499.106 51.5228C513.45 47.7242 524.34 33.7417 539.215 33.8544C545.34 33.9003 551.113 36.424 557.081 37.7592C564.491 39.418 572.21 39.2398 579.716 40.4231C587.224 41.6063 594.979 44.5191 599.222 50.6108C604.255 57.8398 602.875 68.0367 597.593 75.0993C592.312 82.1632 583.853 86.4637 575.187 88.9009C569.142 90.6004 562.702 91.5831 557.471 94.965C552.179 98.3863 548.724 103.892 543.795 107.783C531.424 117.543 512.171 114.746 499.393 105.487C496.182 103.161 493.206 100.462 489.599 98.7597C474.928 91.8308 453.827 101.003 441.191 88.3964C428.359 75.5933 430.187 54.1329 450.063 50.0657" fill="#775298"/>
</g>
<path fill-rule="evenodd" clip-rule="evenodd" d="M446.037 298.016C446.037 298.016 459.479 325.815 461.052 320.668C462.62 315.518 462.102 303.155 461.26 301.39C460.414 299.625 454.919 291.828 454.919 291.828L446.037 298.016Z" fill="#FFB2A0"/>
<path fill-rule="evenodd" clip-rule="evenodd" d="M543.238 73.2272C544.482 74.7642 543.651 73.1132 545.06 75.3303C550.913 75.1337 554.842 70.355 554.842 70.355C554.842 70.355 564.133 70.5921 564.026 68.9909C563.92 67.3871 555.119 67.9859 555.119 67.9859C555.119 67.9859 564.429 65.1648 563.918 63.7562C563.41 62.3489 552.662 66.8381 552.662 66.8381C552.662 66.8381 563.508 60.3428 561.905 59.3011C560.304 58.2621 549.869 63.9318 549.869 63.9318C549.869 63.9318 558.938 56.7447 557.579 55.8183C556.222 54.8919 543.642 64.2463 543.642 64.2463C543.825 59.6444 540.404 59.8056 540.404 59.8056L540.545 71.0416C540.545 71.0416 542.665 72.5196 543.238 73.2272" fill="#FFC6B2"/>
<path fill-rule="evenodd" clip-rule="evenodd" d="M405.522 22.3736C403.533 22.7274 405.075 22.0604 402.494 22.8204C398.256 18.9209 398.818 12.7925 398.818 12.7925C398.818 12.7925 391.71 7.01928 392.888 5.8911C394.074 4.7603 400.241 10.8454 400.241 10.8454C400.241 10.8454 395.223 2.77123 396.573 2.04532C397.922 1.3194 402.872 11.5608 402.872 11.5608C402.872 11.5608 399.229 -0.243807 401.144 0.0038428C403.057 0.251493 406.96 11.1743 406.96 11.1743C406.96 11.1743 405.124 -0.00795005 406.774 0.168943C408.427 0.344525 411.399 15.3988 411.399 15.3988C414.428 11.8399 416.874 14.1527 416.874 14.1527L409.197 22.2989C409.197 22.2989 406.436 22.2124 405.522 22.3736" fill="#FFC6B2"/>
<path fill-rule="evenodd" clip-rule="evenodd" d="M453.744 69.3077C451.173 68.9002 444.957 72.8862 441.847 79.3827C440.106 83.0189 438.908 86.7127 440.906 92.6261C441.847 95.4079 443.817 95.7565 444.257 97.0026C444.812 98.5802 442.972 103.553 442.972 103.553L450.31 106.412C450.786 102.996 451.327 99.559 454.935 98.0757C456.285 97.5202 457.73 97.169 459.004 96.4641C462.442 94.5628 464.278 90.4038 465.69 86.9983C466.744 84.455 460.19 70.3271 453.744 69.3077" fill="#FFC6B2"/>
<path fill-rule="evenodd" clip-rule="evenodd" d="M445.009 165.856L432.716 161.097C432.716 161.097 396.232 226.373 396.384 244.484C396.535 262.594 446.493 298.855 446.493 298.855L454.918 291.829C454.918 291.829 439.494 265.881 431.249 256.732C423.003 247.581 445.009 165.856 445.009 165.856" fill="#FFB2A0"/>
<path fill-rule="evenodd" clip-rule="evenodd" d="M506.049 240.215C506.049 240.215 533.144 227.812 527.7 226.716C522.255 225.626 509.522 227.129 507.768 228.083C506.012 229.038 498.404 234.954 498.404 234.954L506.049 240.215Z" fill="#FFC6B2"/>
<path fill-rule="evenodd" clip-rule="evenodd" d="M457.085 165.29L438.436 171.836C438.436 171.836 419.781 251 426.903 263.429C434.022 275.862 454.023 267.635 482.508 252.636L506.367 240.07L498.403 234.955C498.403 234.955 470.639 240.205 462.842 245.438C462.842 245.438 466.911 234.315 472.337 218.613C477.761 202.91 481.503 186.881 457.085 165.29" fill="#FFC6B2"/>
<path fill-rule="evenodd" clip-rule="evenodd" d="M434.13 111.358C434.13 106.098 435.885 102.294 441.336 102.294C446.788 102.294 454.324 104.138 454.324 109.399C454.324 114.661 450.028 123.203 444.574 123.203C439.123 123.203 434.13 116.62 434.13 111.358" fill="#FFC6B2"/>
<path fill-rule="evenodd" clip-rule="evenodd" d="M438.435 101.54C438.435 101.54 421.483 83.8406 418.092 66.5012C414.7 49.1644 408.938 21.0305 408.938 21.0305L402.496 22.8204C402.496 22.8204 399.443 61.2691 402.496 67.1563C405.546 73.0449 420.457 112.247 424.997 122.542L438.435 101.54Z" fill="#FFC6B2"/>
<path fill-rule="evenodd" clip-rule="evenodd" d="M456.648 115.335C456.648 115.335 457.951 109.829 479.388 102.346C500.824 94.864 541.266 70.6113 541.266 70.6113L545.301 75.0651C545.301 75.0651 523.327 99.5536 510.543 103.849C497.759 108.145 470.606 125.081 467.813 126.436C463.588 128.487 463.639 131.067 456.648 115.335" fill="#FFC6B2"/>
<path fill-rule="evenodd" clip-rule="evenodd" d="M438.435 101.54C438.435 101.54 421.212 106.926 421.212 132.211C421.212 132.211 421.222 166.841 425.282 173.141C425.282 173.141 431.881 174.773 440.108 173.141C448.735 171.43 457.085 165.29 457.085 165.29L470.633 126.047L469.013 107.661L450.592 104.229C450.592 104.229 455.876 128.055 436.756 117.812C433.041 115.822 442.223 102.304 442.223 102.304L438.435 101.54Z" fill="#22343D"/>
<path fill-rule="evenodd" clip-rule="evenodd" d="M423.862 122.105L415.375 105.046C415.375 105.046 416.592 94.697 432.172 90.9888C432.172 90.9888 433.748 96.2051 435.475 98.1981C437.201 100.19 442.229 102.31 442.229 102.31L423.862 122.105Z" fill="#22343D"/>
<path fill-rule="evenodd" clip-rule="evenodd" d="M455.947 128.962L482.934 123.625C482.934 123.625 487.626 114.246 476.501 103.088C476.501 103.088 455.45 104.315 452.726 104.534C450.044 104.748 451.885 106.741 451.885 106.741L455.947 128.962Z" fill="#22343D"/>
<path fill-rule="evenodd" clip-rule="evenodd" d="M425.239 164.706C425.239 164.706 399.713 210.239 395.496 218.374C395.496 218.374 470.802 251.749 501.371 211.576C501.371 211.576 483.982 176.067 457.1 162.548L445.503 159.198L425.692 164.488" fill="#22343D"/>
<path fill-rule="evenodd" clip-rule="evenodd" d="M464.702 86.5678C464.702 86.5678 467.61 83.7624 469.398 85.7043C471.187 87.6462 462.913 90.4516 462.913 90.4516L464.702 86.5678Z" fill="#FFC6B2"/>
<path fill-rule="evenodd" clip-rule="evenodd" d="M517.888 48.3068C517.916 48.4038 516.793 48.8729 514.649 49.3643C512.51 49.8609 509.336 50.3116 505.393 50.3889C501.453 50.4649 496.768 50.1269 491.64 49.456C486.507 48.7995 480.932 47.8351 475.067 47.218C469.211 46.6139 463.58 46.5038 458.593 47.2809C453.605 48.0448 449.287 49.6211 445.987 51.4621C442.687 53.3175 440.39 55.376 438.98 56.934C437.563 58.4932 436.924 59.4891 436.78 59.4052C436.702 59.3659 437.128 58.2443 438.413 56.4963C439.689 54.7536 441.942 52.454 445.302 50.3745C448.66 48.3081 453.122 46.5327 458.308 45.6443C463.5 44.7428 469.307 44.8122 475.265 45.4281C481.228 46.0557 486.81 47.0751 491.883 47.8142C496.954 48.5676 501.538 49.0288 505.397 49.1153C513.134 49.3236 517.817 47.9989 517.888 48.3068" fill="#775298"/>
<path fill-rule="evenodd" clip-rule="evenodd" d="M449.895 84.9753C449.887 85.0854 449.058 85.1627 447.794 84.7578C447.481 84.6516 447.112 84.5127 446.768 84.2088C446.599 84.0568 446.441 83.855 446.345 83.6126C446.206 83.2732 446.217 82.888 446.354 82.5944C446.395 82.5355 446.392 82.3953 446.472 82.3927L446.718 82.3848C446.876 82.3638 447.062 82.4136 447.244 82.4464C447.578 82.508 447.685 82.4988 447.923 82.5145C448.34 82.5237 448.772 82.4818 449.204 82.39C450.969 82.031 452.151 80.7914 452.68 79.772C453.236 78.746 453.285 77.9743 453.433 77.9834C453.537 77.9703 453.744 78.7906 453.285 80.0288C453.051 80.6355 452.645 81.3313 451.989 81.9419C451.337 82.5512 450.434 83.0517 449.409 83.2679C448.897 83.378 448.382 83.4199 447.886 83.395C447.67 83.3846 447.331 83.3426 447.232 83.3217C447.141 83.3073 447.151 83.2876 447.134 83.2981C447.123 83.3086 447.118 83.3256 447.119 83.3505C447.156 83.4684 447.222 83.5811 447.316 83.682C447.505 83.8877 447.779 84.041 448.046 84.1694C449.14 84.687 449.915 84.8403 449.895 84.9753" fill="#FF7B5B"/>
<path fill-rule="evenodd" clip-rule="evenodd" d="M443.841 85.2786L453.782 89.0575C453.782 89.0575 445.046 94.8701 443.841 85.2786" fill="white"/>
<path fill-rule="evenodd" clip-rule="evenodd" d="M458.028 87.0969C457.675 87.7442 456.58 87.8569 455.582 87.3498C454.583 86.844 454.061 85.9085 454.412 85.2625C454.765 84.6152 455.861 84.5012 456.86 85.0083C457.858 85.5154 458.381 86.4496 458.028 87.0969" fill="#FFB2A0"/>
<path fill-rule="evenodd" clip-rule="evenodd" d="M446.933 81.4211C446.631 82.092 445.549 82.2859 444.514 81.8535C443.479 81.4211 442.883 80.5275 443.184 79.8566C443.484 79.1857 444.568 78.9918 445.603 79.4242C446.638 79.8566 447.234 80.7502 446.933 81.4211" fill="#FFB2A0"/>
<path fill-rule="evenodd" clip-rule="evenodd" d="M443.25 95.7976C443.25 95.7976 446.735 98.6135 450.371 97.7067C450.371 97.7067 449.117 99.5202 444.292 98.8546C444.292 98.8546 444.692 96.8563 443.25 95.7976" fill="#FFA192"/>
<path fill-rule="evenodd" clip-rule="evenodd" d="M457.074 81.0731C457.074 81.4924 456.721 81.8331 456.286 81.8331C455.852 81.8331 455.499 81.4924 455.499 81.0731C455.499 80.6538 455.852 80.3131 456.286 80.3131C456.721 80.3131 457.074 80.6538 457.074 81.0731" fill="#22343D"/>
<path fill-rule="evenodd" clip-rule="evenodd" d="M450.628 78.8331C450.628 79.2524 450.275 79.5931 449.841 79.5931C449.406 79.5931 449.054 79.2524 449.054 78.8331C449.054 78.4138 449.406 78.0731 449.841 78.0731C450.275 78.0731 450.628 78.4138 450.628 78.8331" fill="#22343D"/>
<path fill-rule="evenodd" clip-rule="evenodd" d="M459.605 79.0487C459.361 79.1483 458.892 78.5992 458.18 78.155C457.483 77.6912 456.777 77.4829 456.778 77.2286C456.755 76.9849 457.741 76.7871 458.699 77.4069C459.658 78.0227 459.848 78.9753 459.605 79.0487" fill="#775298"/>
<path fill-rule="evenodd" clip-rule="evenodd" d="M448.245 75.3616C448.229 75.1245 449.075 74.8257 450.208 74.8545C451.361 74.8781 452.212 75.418 452.094 75.6433C451.985 75.8713 451.183 75.7731 450.171 75.7547C449.154 75.7259 448.261 75.6198 448.245 75.3616" fill="#775298"/>
<path fill-rule="evenodd" clip-rule="evenodd" d="M451.795 309.312C451.795 309.312 455.93 323.474 460.2 322.314C464.47 321.156 461.259 301.391 461.259 301.391L456.999 294.894C456.999 294.894 461.001 327.978 451.795 309.312" fill="#22343D"/>
<path fill-rule="evenodd" clip-rule="evenodd" d="M503.941 230.799C503.941 230.799 506.948 227.633 510.593 227.106C514.24 226.578 527.271 225.083 529.184 226.754C531.099 228.424 518.622 234.026 518.622 234.026C518.622 234.026 522.97 231.353 521.165 230.36C517.975 228.6 503.941 230.799 503.941 230.799" fill="#22343D"/>
<path fill-rule="evenodd" clip-rule="evenodd" d="M498.771 234.59L502.851 242.582L505.077 241.389L499.636 233.517L498.771 234.59Z" fill="#22343D"/>
<path fill-rule="evenodd" clip-rule="evenodd" d="M453.15 288.624L443.135 297.333L446.103 299.719L454.51 290.891L453.15 288.624Z" fill="#22343D"/>
<path fill-rule="evenodd" clip-rule="evenodd" d="M243.778 201.93C240.93 195.111 239.836 187.519 235.586 181.417C229.47 172.637 217.724 168.28 212.762 158.846C210.654 154.839 209.993 150.255 209.971 145.762C209.93 136.873 212.688 127.423 219.805 121.774C227.982 115.283 240.251 115.373 249.829 119.734C259.403 124.095 266.719 132.01 272.939 140.278C279.161 148.545 284.607 157.417 291.851 164.868C297.222 170.392 303.593 175.156 307.639 181.646C318.731 199.439 307.319 221.952 287.737 228.374C270.532 234.015 249.731 216.186 243.778 201.93" fill="#22343D"/>
<path fill-rule="evenodd" clip-rule="evenodd" d="M219.266 327.419C220.969 328.77 219.112 327.835 221.589 329.391C221.036 335.362 215.312 339.124 215.312 339.124C215.312 339.124 215.07 348.631 213.231 348.436C211.388 348.243 212.568 339.282 212.568 339.282C212.568 339.282 208.799 348.645 207.205 348.049C205.612 347.455 211.381 336.711 211.381 336.711C211.381 336.711 203.295 347.449 202.184 345.756C201.075 344.064 208.19 333.702 208.19 333.702C208.19 333.702 199.404 342.589 198.411 341.15C197.42 339.715 208.896 327.356 208.896 327.356C203.584 327.3 203.961 323.812 203.961 323.812L216.898 324.552C216.898 324.552 218.483 326.796 219.266 327.419" fill="#FFC6B2"/>
<path fill-rule="evenodd" clip-rule="evenodd" d="M342.86 148.13C345.074 148.505 343.356 147.798 346.229 148.603C350.947 144.468 350.32 137.97 350.32 137.97C350.32 137.97 358.233 131.848 356.921 130.652C355.601 129.453 348.737 135.904 348.737 135.904C348.737 135.904 354.321 127.343 352.819 126.573C351.32 125.804 345.81 136.664 345.81 136.664C345.81 136.664 349.864 124.146 347.732 124.408C345.605 124.672 341.261 136.254 341.261 136.254C341.261 136.254 343.303 124.397 341.466 124.584C339.627 124.77 336.652 140.304 336.652 140.304C332.32 136.902 329.287 139.08 329.287 139.08L338.77 148.05C338.77 148.05 341.843 147.96 342.86 148.13" fill="#FFC6B2"/>
<path fill-rule="evenodd" clip-rule="evenodd" d="M288.699 200.048C292.701 199.445 304.907 207.076 301.801 222.573C301.541 223.875 299.78 226.739 299.341 227.923C298.787 229.424 303.105 234.915 303.105 234.915L291.959 238.351C291.483 235.103 292.283 230.355 288.681 228.944C287.334 228.416 285.892 228.082 284.621 227.412C281.189 225.604 279.357 221.648 277.947 218.411C276.894 215.99 276.093 213.388 276.123 210.762C276.196 204.15 282.266 201.017 288.699 200.048" fill="#FFC6B2"/>
<path fill-rule="evenodd" clip-rule="evenodd" d="M311.019 242.49C311.019 236.912 309.186 234.783 303.118 234.783C297.05 234.783 289.039 236.912 289.039 242.49C289.039 248.07 293.324 255.051 299.395 255.051C305.462 255.051 311.019 248.07 311.019 242.49" fill="#FFC6B2"/>
<path fill-rule="evenodd" clip-rule="evenodd" d="M306.227 232.08C306.227 232.08 325.095 213.311 328.87 194.924C332.645 176.539 339.058 146.706 339.058 146.706L346.229 148.603C346.229 148.603 349.627 189.375 346.229 195.619C342.834 201.864 323.585 245.226 323.963 256.326L306.227 232.08Z" fill="#FFC6B2"/>
<path fill-rule="evenodd" clip-rule="evenodd" d="M272.593 241.167C272.593 241.167 266.178 242.208 256.365 263.717C246.553 285.224 216.362 325.265 216.362 325.265L221.269 329.624C221.269 329.624 250.705 308.465 256.365 295.631C262.025 282.796 269.195 266.839 272.593 267.531C275.989 268.227 290.33 249.145 272.593 241.167" fill="#FFC6B2"/>
<path fill-rule="evenodd" clip-rule="evenodd" d="M323.108 259.193L331.894 235.797C331.894 235.797 330.538 224.825 313.198 220.891L303.375 234.546L323.108 259.193Z" fill="#FF7B5B"/>
<path fill-rule="evenodd" clip-rule="evenodd" d="M275.522 239.372C275.522 239.372 265.157 240.215 256.756 258.018C256.756 258.018 265.995 270.324 272.755 270.74C272.755 270.74 297.859 250.037 275.522 239.372" fill="#FF7B5B"/>
<path fill-rule="evenodd" clip-rule="evenodd" d="M304.002 450.5C304.002 450.5 289.039 479.978 287.29 474.52C285.544 469.06 286.121 455.949 287.058 454.078C287.999 452.206 294.116 443.938 294.116 443.938L304.002 450.5Z" fill="#FFC6B2"/>
<path fill-rule="evenodd" clip-rule="evenodd" d="M305.145 310.354L318.828 305.307C318.828 305.307 359.435 374.529 359.267 393.734C359.098 412.937 303.495 451.389 303.495 451.389L294.116 443.937C294.116 443.937 320.471 406.551 329.648 396.85C334.237 391.998 301.384 368.221 296.408 345.343C291.432 322.464 305.145 310.354 305.145 310.354" fill="#654287"/>
<path fill-rule="evenodd" clip-rule="evenodd" d="M222.876 435.057C222.876 435.057 194.888 454.961 196.052 449.375C197.22 443.784 204.266 432.374 206.033 431.104C207.802 429.837 217.358 425.062 217.358 425.062L222.876 435.057Z" fill="#FFC6B2"/>
<path fill-rule="evenodd" clip-rule="evenodd" d="M267.918 334.867L308.4 312.231C308.4 312.231 310.007 390.86 300.288 407.862C290.571 424.863 221.982 435.634 221.982 435.634L217.358 425.062C217.358 425.062 259.674 400.738 272.666 395.977C285.659 391.214 267.918 334.867 267.918 334.867" fill="#775298"/>
<path fill-rule="evenodd" clip-rule="evenodd" d="M292.027 296.747C292.027 296.747 262.22 306.93 267.918 334.867C273.616 362.803 283.113 368.04 283.113 368.04L300.207 340.978L317.37 305.538L300.207 303.438L292.027 296.747Z" fill="#775298"/>
<path fill-rule="evenodd" clip-rule="evenodd" d="M306.227 232.079C306.227 232.079 328.173 243.946 328.173 270.759C328.173 270.759 325.385 301.327 320.866 308.006C320.866 308.006 313.522 309.737 304.364 308.006C294.762 306.192 285.47 299.681 285.47 299.681L277.97 262.256L272.136 240.404L275.299 239.398L291.804 237.648C291.804 237.648 289.433 261.436 307.862 249.623C311.744 247.135 303.03 234.732 303.03 234.732L306.227 232.079Z" fill="#FF7B5B"/>
<path fill-rule="evenodd" clip-rule="evenodd" d="M319.66 130.757L365.672 156.654L391.555 109.485L348.418 86.3635L319.66 130.757Z" fill="white"/>
<path fill-rule="evenodd" clip-rule="evenodd" d="M383.671 356.549L416.58 336.895L389.392 291.108L359.309 309.928L383.671 356.549Z" fill="white"/>
<path fill-rule="evenodd" clip-rule="evenodd" d="M221.641 161.444C221.727 161.369 222.743 162.259 224.35 164.074C225.95 165.891 228.132 168.655 230.323 172.384C232.522 176.097 234.697 180.809 236.251 186.278C237.859 191.707 238.937 197.809 241.409 203.687C242.693 206.591 244.248 209.294 246.099 211.684C247.966 214.059 250.037 216.142 252.169 217.959C256.526 221.497 261.091 223.93 265.158 225.336C269.222 226.762 272.703 227.402 275.123 227.631C277.54 227.889 278.907 227.927 278.908 228.08C278.915 228.176 277.552 228.376 275.07 228.331C272.589 228.312 268.977 227.855 264.724 226.539C260.467 225.242 255.658 222.842 251.06 219.226C248.804 217.368 246.612 215.217 244.637 212.744C242.679 210.257 241.025 207.414 239.682 204.37C237.107 198.226 236.089 192.07 234.591 186.714C233.161 181.339 231.173 176.713 229.163 172.992C227.165 169.26 225.182 166.431 223.777 164.502C222.363 162.577 221.535 161.534 221.641 161.444" fill="#22343D"/>
<path fill-rule="evenodd" clip-rule="evenodd" d="M278.172 131.146C278.51 131.096 278.839 135.466 281.373 141.93C282.638 145.149 284.521 148.854 287.225 152.567C288.576 154.426 290.131 156.258 291.891 158.084C293.639 159.917 295.543 161.779 297.343 163.867C300.951 168.083 303.434 172.639 305.771 176.66C308.092 180.721 309.941 184.583 310.88 188.039C311.861 191.484 311.918 194.449 311.607 196.416C311.282 198.392 310.773 199.393 310.689 199.365C310.527 199.325 310.791 198.267 310.883 196.353C310.963 194.441 310.711 191.655 309.615 188.399C308.555 185.13 306.65 181.445 304.272 177.471C301.857 173.498 299.353 169.034 295.906 165.016C294.176 163.006 292.299 161.151 290.54 159.272C288.772 157.402 287.164 155.455 285.807 153.507C283.085 149.606 281.268 145.718 280.13 142.357C278.966 138.997 278.47 136.162 278.236 134.208C278.003 132.251 278.066 131.155 278.172 131.146" fill="#22343D"/>
<path fill-rule="evenodd" clip-rule="evenodd" d="M292.278 216.892C292.26 216.767 293.01 216.651 293.718 215.849C293.881 215.665 294.045 215.395 294.042 215.238C294.038 215.069 293.916 214.775 293.705 214.606C293.487 214.417 293.244 214.326 292.923 214.357C292.592 214.381 292.188 214.539 291.661 214.615C290.507 214.763 289.607 214.134 289.015 213.625C288.406 213.089 287.942 212.545 287.595 212.057C286.905 211.076 286.691 210.367 286.797 210.315C286.919 210.252 287.335 210.839 288.113 211.662C288.501 212.07 288.991 212.54 289.57 212.992C290.14 213.431 290.838 213.83 291.535 213.724C291.905 213.678 292.335 213.512 292.859 213.478C293.393 213.427 293.987 213.664 294.312 214.018C294.659 214.379 294.853 214.805 294.812 215.31C294.709 215.826 294.425 216.067 294.19 216.292C293.176 217.149 292.245 217.009 292.278 216.892" fill="#FF7B5B"/>
<path fill-rule="evenodd" clip-rule="evenodd" d="M297.716 217.631L288.879 220.731C288.879 220.731 296.377 227.06 297.716 217.631" fill="white"/>
<path fill-rule="evenodd" clip-rule="evenodd" d="M287.997 217.103C288.35 217.75 287.827 218.686 286.829 219.192C285.831 219.699 284.736 219.586 284.383 218.939C284.03 218.293 284.553 217.357 285.551 216.85C286.549 216.343 287.644 216.456 287.997 217.103" fill="#FFB2A0"/>
<path fill-rule="evenodd" clip-rule="evenodd" d="M298.473 211.92C298.762 212.596 298.151 213.479 297.11 213.895C296.066 214.311 294.987 214.1 294.698 213.424C294.408 212.748 295.019 211.865 296.062 211.45C297.104 211.034 298.184 211.244 298.473 211.92" fill="#FFB2A0"/>
<path fill-rule="evenodd" clip-rule="evenodd" d="M289.14 229.171C289.14 229.171 292.097 229.751 295.865 228.843C295.865 228.843 294.008 230.585 290.972 230.99C290.972 230.99 290.292 229.776 289.14 229.171" fill="#FFA192"/>
<path fill-rule="evenodd" clip-rule="evenodd" d="M292.161 210.006C292.492 210.277 292.533 210.757 292.252 211.076C291.971 211.396 291.475 211.435 291.142 211.164C290.811 210.894 290.77 210.415 291.051 210.094C291.332 209.774 291.829 209.735 292.161 210.006" fill="#22343D"/>
<path fill-rule="evenodd" clip-rule="evenodd" d="M286.222 213.302C286.554 213.573 286.594 214.053 286.313 214.373C286.034 214.692 285.536 214.732 285.204 214.46C284.872 214.189 284.832 213.711 285.113 213.39C285.394 213.07 285.891 213.031 286.222 213.302" fill="#22343D"/>
<path fill-rule="evenodd" clip-rule="evenodd" d="M292.196 206.834C292.117 207.078 291.38 207.069 290.569 207.306C289.751 207.518 289.131 207.903 288.93 207.737C288.722 207.598 289.203 206.744 290.312 206.44C291.419 206.132 292.295 206.609 292.196 206.834" fill="#22343D"/>
<path fill-rule="evenodd" clip-rule="evenodd" d="M281.937 212.812C281.739 212.67 282.05 211.855 282.805 211.04C283.568 210.207 284.546 209.929 284.648 210.161C284.758 210.388 284.162 210.916 283.492 211.648C282.813 212.378 282.152 212.968 281.937 212.812" fill="#22343D"/>
<path fill-rule="evenodd" clip-rule="evenodd" d="M278.604 219.143C278.604 219.143 275.77 216.846 274.409 218.924C273.049 221.002 280.531 222.096 280.531 222.096L278.604 219.143Z" fill="#FFC6B2"/>
<path fill-rule="evenodd" clip-rule="evenodd" d="M210.452 428.589C210.452 428.589 206.388 430.294 205.329 431.317C204.268 432.339 194.551 448.532 195.788 450.577C197.026 452.623 206.77 445.679 206.77 445.679C206.77 445.679 198.616 447.169 210.452 428.589" fill="#775298"/>
<path fill-rule="evenodd" clip-rule="evenodd" d="M289.745 450.002C289.745 450.002 286.859 453.012 286.413 454.394C285.968 455.774 285.171 474.469 287.253 475.725C289.333 476.981 295.021 466.665 295.021 466.665C295.021 466.665 288.221 471.804 289.745 450.045" fill="#775298"/>
</svg>
